<svg width="96" height="24" viewBox="0 0 96 24" fill="none" xmlns="http://www.w3.org/2000/svg">
  <rect x="1" y="1" width="22" height="22" rx="6" fill="#0F172A" fill-opacity="0.08" stroke="#334155" stroke-width="1.2"/>
  <path d="M7 16L12 7L17 16" stroke="#334155" stroke-width="1.8" stroke-linecap="round" stroke-linejoin="round"/>
  <path d="M9 13H15" stroke="#334155" stroke-width="1.8" stroke-linecap="round"/>
  <path d="M30 7.5H34.5L36 10L37.5 7.5H42V16.5H39.2V11.6L36 16.5L32.8 11.6V16.5H30V7.5Z" fill="#334155"/>
  <path d="M45 7.5H48.1V16.5H45V7.5Z" fill="#334155"/>
  <path d="M50.7 7.5H53.9L58 12.6V7.5H61V16.5H58.2L53.7 10.9V16.5H50.7V7.5Z" fill="#334155"/>
  <path d="M63.7 7.5H66.8V13.1C66.8 14.1 67.4 14.7 68.4 14.7C69.4 14.7 70 14.1 70 13.1V7.5H73.1V13.2C73.1 15.5 71.4 16.8 68.4 16.8C65.4 16.8 63.7 15.5 63.7 13.2V7.5Z" fill="#334155"/>
  <path d="M75.6 7.5H80.3C82.8 7.5 84.1 8.5 84.1 10.4C84.1 11.7 83.4 12.5 82 12.8L84.5 16.5H81.1L79 13.2H78.7V16.5H75.6V7.5ZM78.7 10V11.2H80C80.7 11.2 81 11 81 10.6C81 10.2 80.7 10 80 10H78.7Z" fill="#334155"/>
</svg>
